PathFileType	4	(X/Y/Z)	C:/Users/beibeiliu/ov580/test_trc/User3\sequence.48_training_dense_right.trc
DataRate	CameraRate	NumFrames	NumMarkers	Units	OrigDataRate	OrigDataStartFrame	OrigNumFrames
120	120	18	19	mm	120	135	188
Frame#	Time	ThumbCMC			ThumbMCP			ThumbIP			ThumbTip			IndexMCP			IndexPIP			IndexTip			MiddleMCP			MiddlePIP			MiddleTip			RingMCP			RingPIP			RingTip			PinkyMCP			PinkyPIP			PinkyTip			BackHand1			BackHand2			BackHand3	
		X0	Y0	Z0	X1	Y1	Z1	X2	Y2	Z2	X3	Y3	Z3	X4	Y4	Z4	X5	Y5	Z5	X6	Y6	Z6	X7	Y7	Z7	X8	Y8	Z8	X9	Y9	Z9	X10	Y10	Z10	X11	Y11	Z11	X12	Y12	Z12	X13	Y13	Z13	X14	Y14	Z14	X15	Y15	Z15	X16	Y16	Z16	X17	Y17	Z17	X18	Y18	Z18	
134	1.11667	120.57	46.1463	55.5715	96.4294	32.4904	28.2037	89.512	8.01355	2.67652	105.933	-17.1147	2.13353	145.367	44.1547	-17.9842	134.063	46.9721	-43.2843	120.323	39.3512	-68.673	160.914	27.0123	-21.5842	157.377	22.9318	-50.2569	147.753	15.1097	-83.3298	156.434	5.05461	-14.1977	148.905	-2.59395	-37.3417	129.652	-9.44733	-63.0275	140.461	-16.1105	3.87092	109.756	-14.2714	7.94141	106.422	-4.24658	32.4439	170.721	13.3933	39.4478	169.565	11.691	70.5918	161.734	40.8616	52.3423	
135	1.125	136.023	50.3244	48.9942	105.636	43.1551	23.2266	92.9796	18.4747	1.9273	100.164	-8.57735	4.06023	157.883	37.5383	-20.4988	148.224	33.8623	-47.2109	134.672	31.4259	-70.0887	164.567	9.06631	-25.7187	159.781	6.96843	-51.9579	150.645	3.99318	-79.9249	153.046	-7.62674	-17.9086	142.698	-12.8978	-40.5794	128.556	-17.6431	-59.2248	130.391	-18.3469	5.14847	102.238	-8.78482	11.6122	103.429	3.90986	36.8888	170.155	-2.11099	34.0392	174.027	0.963227	68.1414	171.932	30.7074	44.1135	
136	1.13333	151.328	48.4617	48.8772	122.766	44.396	21.8217	104.286	26.247	4.01874	100.016	-0.14678	2.82953	166.614	20.8859	-21.2507	159.552	27.4039	-48.9635	142.782	24.5581	-73.5229	165.044	-3.32665	-24.9678	160.823	-2.87583	-50.3418	148.301	-7.32157	-79.5319	150.088	-17.9705	-13.1013	139.4	-20.5039	-36.2234	124.154	-21.9619	-60.7554	126.589	-19.8248	4.40826	102.122	-3.25104	9.47432	106.465	13.6995	32.0939	170.346	-13.7574	34.0944	171.013	-11.5151	68.6408	181.971	17.3188	42.9987	
137	1.14167	167.68	42.9133	45.9473	139.436	45.8805	17.5736	116.14	33.9206	-3.11669	104.247	11.8568	1.22327	174.195	8.62339	-26.1303	167.484	14.2207	-50.9866	155.607	17.6132	-74.1219	164.884	-14.3951	-24.2704	159.286	-14.9227	-55.4603	146.43	-13.6962	-81.2152	146.808	-24.4572	-15.1013	136.545	-23.7736	-39.8671	121.93	-20.7418	-62.1666	124.477	-20.488	1.60459	105.15	-2.20177	-1.41906	106.447	16.8201	23.8382	165.502	-25.3964	38.1972	173.446	-17.9875	65.9931	188.486	6.14629	41.4189	
138	1.15	182.315	32.8583	44.9964	158.351	44.672	16.3467	132.217	37.0959	-4.29464	111.102	16.7663	-3.12435	180.503	-4.0706	-25.0194	176.886	2.71315	-53.4684	164.927	8.3809	-74.143	166.493	-23.7083	-24.7444	158.917	-22.1317	-54.7802	145.561	-19.9282	-78.064	147.352	-27.1802	-10.9068	136.066	-29.658	-37.9264	127.084	-23.0429	-62.3964	128.495	-28.5291	2.98329	112.066	-14.4367	-13.6883	106.222	14.6816	-3.33877	165.224	-30.633	36.6449	167.507	-28.5507	67.2412	190.484	-7.75526	46.1003	
139	1.15833	184.708	25.9895	50.5033	165.453	39.0592	20.1827	139.05	35.084	0.258793	121.455	16.635	5.38531	187.087	-1.90206	-22.9629	181.719	5.02067	-51.4398	172.666	12.4562	-71.1867	168.631	-22.3509	-23.1686	160.219	-19.947	-53.4443	147.111	-14.5601	-78.7299	151.635	-26.3336	-10.5408	142.314	-29.9208	-34.7203	130.848	-25.1056	-63.5785	128.762	-34.0364	7.65664	116.94	-32.7173	-12.8867	100.292	-10.4098	-27.0743	164.851	-31.2443	37.5551	168.141	-32.4191	68.7259	190.827	-13.6377	47.4324	
140	1.16667	186.561	25.1828	51.8997	171.425	46.4237	23.4711	145.718	41.6097	6.87935	124.662	21.913	7.58078	184.617	3.20548	-17.8761	177.631	9.82588	-48.8892	172.485	21.8583	-71.0005	166.43	-15.9708	-19.5744	159.712	-11.9102	-51.5071	145.499	-6.92482	-77.9572	146.629	-26.3374	-10.2724	142.849	-25.2257	-35.1958	129.094	-22.8296	-62.3916	128.257	-28.4625	12.3102	117.146	-32.6497	-8.38014	99.3587	-25.9391	-33.074	158.506	-30.5012	41.9326	164.98	-31.2869	67.1402	191.858	-11.1146	47.4418	
141	1.175	194.865	25.7358	56.915	182.929	45.7469	26.9717	161.047	52.5497	4.26784	136.77	40.7349	5.64743	184.831	7.91984	-21.1919	178.281	14.9113	-45.546	171.55	27.939	-67.7453	160.083	-12.4638	-19.3181	158.043	-5.82961	-49.6627	146.054	1.16034	-76.8829	145.973	-17.9245	-12.0687	135.736	-19.8973	-35.6532	129.166	-16.1631	-58.3005	120.829	-21.5778	13.5667	107.763	-22.855	-8.76819	92.6312	-22.5811	-24.5759	159.018	-26.646	37.3125	160.639	-32.9471	68.964	185.729	-14.6861	47.1906	
142	1.18333	202.242	19.4481	53.636	203.376	44.4257	32.1413	189.551	59.6085	7.10917	166.443	62.3389	-0.97132	186.03	6.8042	-19.5288	186.917	19.2015	-43.5227	183.551	32.439	-65.8184	161.658	-10.4886	-21.8107	156.03	-5.50231	-47.1717	147.172	6.58581	-80.5346	142.516	-15.0166	-12.7985	137.926	-13.9868	-32.1497	125.17	-9.56632	-61.6583	119.188	-12.3965	10.9164	107.688	-10.4339	-5.62168	87.5168	-10.6289	-21.6379	156.971	-24.5723	40.4359	156.518	-33.3947	64.0003	189.643	-17.8477	45.2728	
143	1.19167	205.687	12.4399	54.7048	214.768	36.3529	38.2969	216.446	57.8715	13.0361	203.792	70.6866	-5.59111	192.341	5.28212	-16.4319	194.655	19.0175	-45.4515	189.714	30.9237	-66.3841	164.973	-10.3828	-19.5411	159.887	-5.23068	-47.7189	154.473	6.87863	-80.26	145.683	-11.8908	-7.82403	133.946	-10.6512	-36.5752	127.677	-5.44103	-58.9947	121.456	-6.91499	13.082	106.522	-1.25467	-2.95368	92.7533	3.30876	-23.3084	158.476	-26.3177	34.1925	160.007	-31.5214	68.5965	188.6	-18.7254	45.7275	
144	1.2	209.016	8.80859	61.4843	220.81	32.0073	40.6136	228.916	49.2637	19.2751	233.419	65.5701	3.38994	196.124	2.70745	-18.9979	196.345	13.6301	-45.3495	200.374	26.3167	-64.3794	170.197	-10.6336	-18.2465	163.573	-5.7824	-49.0793	158.917	3.46629	-77.6055	146.28	-12.6529	-10.9191	136.875	-9.98193	-31.5478	126.076	-1.70417	-59.9668	120.722	-5.55578	11.682	106.911	4.13658	-7.96573	96.2402	13.2918	-20.0634	157.796	-24.7578	35.1442	161.076	-32.9032	69.396	190.307	-23.2101	45.4742	
145	1.20833	209.512	7.20262	61.501	220.006	27.5609	38.831	234.752	44.3448	21.7568	242.591	57.5726	5.49392	195.074	-1.95368	-17.2988	200.407	6.88516	-40.8048	202.963	20.4361	-64.283	169.774	-16.844	-15.6675	165.745	-12.5619	-46.1112	157.506	-0.228535	-75.4711	148.048	-15.2862	-8.49978	137.145	-9.29213	-34.4161	124.91	8.08967	-55.0999	124.235	-5.50216	11.9635	110.626	7.48855	-4.00771	97.3498	27.7316	-14.5776	155.627	-28.8624	41.5008	160.165	-33.8541	70.1653	188.64	-25.6436	49.7741	
146	1.21667	207.929	8.37775	59.3765	212.69	28.1427	41.392	226.037	45.2932	18.303	230.836	59.6201	4.73217	200.456	-5.73499	-14.9563	205.008	2.02221	-36.8996	201.95	15.4761	-64.9433	170.386	-19.8779	-13.3203	164.358	-15.3154	-45.8361	153.491	7.8372	-73.0827	146.393	-14.2032	-4.66433	134.559	-0.282094	-30.9305	126.266	26.5699	-40.3288	122.066	-3.23853	10.6938	113.986	16.9281	-2.61755	114.27	42.7997	-7.35352	160.501	-31.6292	39.6724	159.726	-33.8946	71.1638	190.546	-24.4222	54.1674	
147	1.225	206.238	10.7011	61.2409	205.67	31.6285	41.2454	211.428	48.6276	18.0108	210.113	62.2909	-0.584084	194.712	-9.27678	-9.70231	201.393	-4.54698	-37.6635	201.915	8.45457	-63.9403	165.336	-21.445	-14.0361	160.226	-9.21176	-46.4407	150.176	23.2265	-61.3489	145.076	-10.0386	-4.1752	131.667	9.44663	-23.0751	127.188	41.7517	-19.1813	127.079	-4.76966	14.3911	115.85	16.9219	3.11359	113.724	43.4867	1.41148	159.83	-32.9034	44.5059	162.073	-34.9307	71.5657	189.16	-25.0839	56.355	
148	1.23333	201.646	10.2184	61.9603	201.451	34.0623	37.906	200.861	50.9471	12.2006	192.141	63.1185	-3.97872	195.166	-12.2007	-10.3237	198.49	-9.0905	-39.614	201.978	0.241643	-64.8287	163.924	-15.5981	-15.7784	153.882	0.0601481	-40.8891	141.652	39.2482	-40.5942	142.832	-6.30651	-5.24117	128.432	15.7952	-17.8655	128.387	46.9493	-7.78355	121.678	-7.95858	11.9356	109.274	12.7178	1.26208	108.454	39.0796	-3.39537	156.462	-33.4205	43.2129	161.85	-37.3032	74.2115	188.273	-27.6981	55.9169	
149	1.24167	201.935	12.49	62.5368	198.067	33.2976	41.1462	194.168	52.7277	12.002	175.868	58.8523	-3.72246	189.197	-10.978	-9.86605	192.915	-7.26703	-36.6054	192.447	0.686946	-62.371	161.41	-7.2176	-14.1931	150.617	18.2295	-34.2359	139.132	53.445	-18.8561	142.545	-4.56763	-4.41672	129.661	17.4527	-16.9388	124.044	51.4578	-5.65341	120.648	-11.4857	10.9592	106.997	1.18666	-3.31317	97.4893	21.5654	-15.8122	157.598	-34.5248	43.5376	158.869	-38.9874	73.2165	190.45	-24.7807	52.8248	
150	1.25	199.368	12.2048	63.3223	195.783	35.145	37.3179	188.178	51.4721	14.5871	169.345	58.6704	-4.22637	189.046	-3.82372	-11.1805	190.963	4.29752	-38.8143	183.265	24.9163	-64.0142	156.916	0.452098	-15.4996	144.762	30.2859	-27.28	136.461	59.0996	-2.76813	140.059	-5.84169	-3.91017	126.153	20.0317	-20.2825	121.471	47.1233	-12.1183	122.238	-14.1263	12.2435	107.436	-7.08829	-1.6933	91.5796	6.93295	-18.8744	157.809	-34.1439	39.8106	160.446	-38.4725	69.4591	187.94	-23.9163	51.1236	
151	1.25833	197.074	16.1777	61.4609	193.396	40.4831	39.8875	179.616	51.4396	13.5868	157.63	54.5678	1.692	185.235	4.97671	-11.2402	177.357	17.7721	-37.7109	162.637	46.5243	-49.7694	155.511	0.960509	-13.1241	142.505	30.2425	-27.0197	134.947	57.5931	-0.796983	135.702	-7.15511	-8.4866	122.182	16.0539	-21.9417	114.948	41.7574	-11.2172	117.886	-18.6459	14.1229	104.123	-9.07132	-4.99619	89.0617	8.77012	-18.0655	158.467	-31.8674	40.6553	158.09	-39.4926	73.2436	187.667	-19.9308	51.8409	
